<svg xmlns="http://www.w3.org/2000/svg" width="351.099" height="382.065" viewBox="0 0 351.099 382.065">
  <g id="Hex_Design_3" data-name="Hex Design 3" transform="matrix(-0.259, 0.966, -0.966, -0.259, 10757.328, 2980.811)">
    <g id="Polygon_14" data-name="Polygon 14" transform="translate(-127 10865)" fill="none">
      <path d="M142.018,0A23,23,0,0,1,161.9,11.439l38.376,66a23,23,0,0,1,0,23.122l-38.376,66A23,23,0,0,1,142.018,178H64.982A23,23,0,0,1,45.1,166.561l-38.376-66a23,23,0,0,1,0-23.122l38.376-66A23,23,0,0,1,64.982,0Z" stroke="none"/>
      <path d="M 64.98196411132812 7.999984741210938 C 59.65908813476562 7.999984741210938 54.69032287597656 10.8585205078125 52.01472473144531 15.46005249023438 L 13.63825988769531 81.46018981933594 C 10.93399047851562 86.11099243164062 10.93399047851562 91.88925170898438 13.63825988769531 96.54005432128906 L 52.01472473144531 162.5401916503906 C 54.69032287597656 167.1417236328125 59.65908813476562 170.0002593994141 64.98196411132812 170.0002593994141 L 142.0182189941406 170.0002593994141 C 147.3410949707031 170.0002593994141 152.3098602294922 167.1417236328125 154.9854583740234 162.5401916503906 L 193.3619232177734 96.54009246826172 C 196.066162109375 91.88925170898438 196.066162109375 86.11099243164062 193.3619232177734 81.46018981933594 L 154.9854583740234 15.46005249023438 C 152.3098602294922 10.8585205078125 147.3410949707031 7.999984741210938 142.0182189941406 7.999984741210938 L 64.98196411132812 7.999984741210938 M 64.98196411132812 -1.52587890625e-05 L 142.0182189941406 -1.52587890625e-05 C 150.2100524902344 -1.52587890625e-05 157.7835998535156 4.3570556640625 161.9013214111328 11.43875122070312 L 200.2777862548828 77.43888854980469 C 204.4336242675781 84.58615875244141 204.4336242675781 93.41405487060547 200.2777862548828 100.5613555908203 L 161.9013214111328 166.5614929199219 C 157.7835998535156 173.6431884765625 150.2100524902344 178.0002593994141 142.0182189941406 178.0002593994141 L 64.98196411132812 178.0002593994141 C 56.79013061523438 178.0002593994141 49.21659851074219 173.6431884765625 45.09886169433594 166.5614929199219 L 6.722396850585938 100.5613555908203 C 2.5665283203125 93.41405487060547 2.5665283203125 84.58615875244141 6.722396850585938 77.43888854980469 L 45.09886169433594 11.43875122070312 C 49.21659851074219 4.3570556640625 56.7901611328125 -1.52587890625e-05 64.98196411132812 -1.52587890625e-05 Z" stroke="none" fill="#c6ac8f"/>
    </g>
    <g id="Polygon_15" data-name="Polygon 15" transform="translate(-10 10776)" fill="none">
      <path d="M142.018,0A23,23,0,0,1,161.9,11.439l38.376,66a23,23,0,0,1,0,23.122l-38.376,66A23,23,0,0,1,142.018,178H64.982A23,23,0,0,1,45.1,166.561l-38.376-66a23,23,0,0,1,0-23.122l38.376-66A23,23,0,0,1,64.982,0Z" stroke="none"/>
      <path d="M 64.98196411132812 7.999984741210938 C 59.65908813476562 7.999984741210938 54.69032287597656 10.8585205078125 52.01472473144531 15.46005249023438 L 13.63825988769531 81.46018981933594 C 10.93399047851562 86.11099243164062 10.93399047851562 91.88925170898438 13.63825988769531 96.54005432128906 L 52.01472473144531 162.5401916503906 C 54.69032287597656 167.1417236328125 59.65908813476562 170.0002593994141 64.98196411132812 170.0002593994141 L 142.0182189941406 170.0002593994141 C 147.3410949707031 170.0002593994141 152.3098602294922 167.1417236328125 154.9854583740234 162.5401916503906 L 193.3619232177734 96.54009246826172 C 196.066162109375 91.88925170898438 196.066162109375 86.11099243164062 193.3619232177734 81.46018981933594 L 154.9854583740234 15.46005249023438 C 152.3098602294922 10.8585205078125 147.3410949707031 7.999984741210938 142.0182189941406 7.999984741210938 L 64.98196411132812 7.999984741210938 M 64.98196411132812 -1.52587890625e-05 L 142.0182189941406 -1.52587890625e-05 C 150.2100524902344 -1.52587890625e-05 157.7835998535156 4.3570556640625 161.9013214111328 11.43875122070312 L 200.2777862548828 77.43888854980469 C 204.4336242675781 84.58615875244141 204.4336242675781 93.41405487060547 200.2777862548828 100.5613555908203 L 161.9013214111328 166.5614929199219 C 157.7835998535156 173.6431884765625 150.2100524902344 178.0002593994141 142.0182189941406 178.0002593994141 L 64.98196411132812 178.0002593994141 C 56.79013061523438 178.0002593994141 49.21659851074219 173.6431884765625 45.09886169433594 166.5614929199219 L 6.722396850585938 100.5613555908203 C 2.5665283203125 93.41405487060547 2.5665283203125 84.58615875244141 6.722396850585938 77.43888854980469 L 45.09886169433594 11.43875122070312 C 49.21659851074219 4.3570556640625 56.7901611328125 -1.52587890625e-05 64.98196411132812 -1.52587890625e-05 Z" stroke="none" fill="#5e503f"/>
    </g>
    <g id="Polygon_16" data-name="Polygon 16" transform="translate(5 10902)" fill="none">
      <path d="M142.018,0A23,23,0,0,1,161.9,11.439l38.376,66a23,23,0,0,1,0,23.122l-38.376,66A23,23,0,0,1,142.018,178H64.982A23,23,0,0,1,45.1,166.561l-38.376-66a23,23,0,0,1,0-23.122l38.376-66A23,23,0,0,1,64.982,0Z" stroke="none"/>
      <path d="M 64.98196411132812 7.999984741210938 C 59.65908813476562 7.999984741210938 54.69032287597656 10.8585205078125 52.01472473144531 15.46005249023438 L 13.63825988769531 81.46018981933594 C 10.93399047851562 86.11099243164062 10.93399047851562 91.88925170898438 13.63825988769531 96.54005432128906 L 52.01472473144531 162.5401916503906 C 54.69032287597656 167.1417236328125 59.65908813476562 170.0002593994141 64.98196411132812 170.0002593994141 L 142.0182189941406 170.0002593994141 C 147.3410949707031 170.0002593994141 152.3098602294922 167.1417236328125 154.9854583740234 162.5401916503906 L 193.3619232177734 96.54009246826172 C 196.066162109375 91.88925170898438 196.066162109375 86.11099243164062 193.3619232177734 81.46018981933594 L 154.9854583740234 15.46005249023438 C 152.3098602294922 10.8585205078125 147.3410949707031 7.999984741210938 142.0182189941406 7.999984741210938 L 64.98196411132812 7.999984741210938 M 64.98196411132812 -1.52587890625e-05 L 142.0182189941406 -1.52587890625e-05 C 150.2100524902344 -1.52587890625e-05 157.7835998535156 4.3570556640625 161.9013214111328 11.43875122070312 L 200.2777862548828 77.43888854980469 C 204.4336242675781 84.58615875244141 204.4336242675781 93.41405487060547 200.2777862548828 100.5613555908203 L 161.9013214111328 166.5614929199219 C 157.7835998535156 173.6431884765625 150.2100524902344 178.0002593994141 142.0182189941406 178.0002593994141 L 64.98196411132812 178.0002593994141 C 56.79013061523438 178.0002593994141 49.21659851074219 173.6431884765625 45.09886169433594 166.5614929199219 L 6.722396850585938 100.5613555908203 C 2.5665283203125 93.41405487060547 2.5665283203125 84.58615875244141 6.722396850585938 77.43888854980469 L 45.09886169433594 11.43875122070312 C 49.21659851074219 4.3570556640625 56.7901611328125 -1.52587890625e-05 64.98196411132812 -1.52587890625e-05 Z" stroke="none" fill="#22333b"/>
    </g>
  </g>
</svg>
