<svg xmlns="http://www.w3.org/2000/svg" width="101.348" height="97.97" viewBox="0 0 101.348 97.97">
  <path id="Icon_metro-local-service" data-name="Icon metro-local-service" d="M40.46,77.786c9.881,7.642,25.939,7.642,35.82,0s9.881-20.059,0-27.7ZM96.392,5.19,20.381,5.141c-7,0-12.668,4.384-12.668,9.8V93.314c0,5.413,5.669,9.8,12.668,9.8H96.392c7,0,12.668-4.384,12.668-9.8V14.938c0-5.413-5.669-9.748-12.668-9.748ZM45.718,14.938c3.484,0,6.334,2.2,6.334,4.9s-2.85,4.9-6.334,4.9-6.334-2.2-6.334-4.9S42.234,14.938,45.718,14.938Zm-19,0c3.484,0,6.334,2.2,6.334,4.9s-2.85,4.9-6.334,4.9-6.334-2.2-6.334-4.9S23.231,14.938,26.715,14.938ZM58.386,93.314c-21,0-38.006-13.152-38.006-29.391S37.388,34.532,58.386,34.532,96.392,47.685,96.392,63.923,79.384,93.314,58.386,93.314Z" transform="translate(-7.712 -5.141)" fill="#eae0d5"/>
</svg>
